<?xml version="1.0" standalone="no"?>
<!DOCTYPE svg PUBLIC "-//W3C//DTD SVG 20010904//EN"
 "http://www.w3.org/TR/2001/REC-SVG-20010904/DTD/svg10.dtd">
<svg version="1.0" xmlns="http://www.w3.org/2000/svg"
 width="500.000000pt" height="500.000000pt" viewBox="0 0 500.000000 500.000000"
 preserveAspectRatio="xMidYMid meet">

<g transform="translate(0.000000,500.000000) scale(0.100000,-0.100000)"
fill="#f5f4f2" stroke="none">
<path d="M2470 4964 c19 -50 11 -126 -23 -208 -17 -44 -37 -81 -44 -83 -7 -3
-24 14 -38 37 -14 22 -30 38 -36 34 -15 -9 -44 21 -64 66 -10 22 -22 40 -28
40 -17 0 1 -71 28 -112 15 -22 29 -54 32 -71 9 -58 -42 -247 -67 -247 -4 0
-20 28 -34 63 -26 58 -29 61 -42 43 -8 -11 -14 -26 -14 -33 0 -19 -4 -17 -46
25 -34 33 -39 35 -42 17 -3 -14 18 -40 78 -97 67 -64 80 -81 75 -99 -15 -48
-131 -273 -142 -277 -18 -5 -53 121 -62 226 -10 115 3 275 28 350 11 31 47
110 81 176 44 84 58 122 51 129 -14 14 -24 3 -45 -56 -18 -48 -72 -128 -91
-134 -5 -1 -32 32 -60 74 -42 65 -51 73 -53 54 -2 -14 13 -56 34 -97 l37 -72
-6 -93 c-9 -114 -26 -217 -38 -225 -6 -3 -44 26 -85 65 -41 40 -79 69 -84 66
-11 -7 3 -39 20 -50 6 -3 10 -11 10 -16 0 -6 -34 8 -76 30 -42 23 -79 39 -82
37 -11 -11 25 -38 107 -83 128 -68 159 -90 177 -124 11 -23 20 -87 29 -228 21
-312 27 -491 17 -491 -35 0 -316 267 -354 337 -34 62 -42 100 -68 308 -42 349
-69 538 -80 549 -7 7 -10 6 -10 -3 0 -8 -7 -10 -20 -6 -32 10 -27 -17 46 -272
34 -119 1 -94 -121 87 -80 119 -125 175 -125 154 0 -5 18 -38 39 -74 22 -36
38 -66 36 -68 -1 -2 -20 4 -40 12 -78 33 -68 6 19 -52 124 -81 174 -162 183
-294 7 -90 1 -94 -58 -47 -47 37 -49 29 -8 -31 47 -70 91 -161 85 -176 -12
-31 -65 -11 -153 55 -45 34 -91 101 -113 166 -10 30 -35 90 -54 133 -20 43
-41 103 -47 133 -18 86 -60 123 -51 44 2 -25 2 -45 -1 -45 -4 0 -28 14 -54 30
-91 58 -82 34 17 -45 53 -43 74 -67 95 -112 42 -92 33 -100 -49 -48 -94 61
-115 56 -41 -8 108 -93 167 -155 160 -167 -9 -15 -110 -5 -180 17 -96 31 -160
81 -232 181 -25 35 -48 61 -50 58 -3 -3 2 -25 10 -50 9 -26 14 -46 11 -46 -3
0 -27 12 -55 26 -63 31 -88 26 -34 -8 166 -105 401 -217 457 -219 13 0 32 -4
43 -9 18 -7 16 -10 -20 -26 -31 -15 -64 -19 -152 -19 -61 0 -109 -3 -107 -7 2
-4 30 -12 60 -19 48 -11 68 -10 133 3 49 10 92 13 121 9 72 -12 276 -122 338
-181 28 -29 52 -56 52 -61 0 -5 -59 -6 -145 -2 -104 4 -145 3 -145 -5 0 -6 17
-14 38 -17 20 -4 42 -8 47 -9 6 -2 -10 -13 -35 -24 l-45 -22 40 4 c22 3 72 12
110 20 128 29 165 20 257 -62 31 -28 92 -76 134 -108 43 -32 94 -76 115 -98
40 -41 66 -92 55 -104 -10 -9 -157 30 -243 64 -37 15 -108 49 -158 76 -49 27
-95 47 -101 46 -7 -2 26 -31 72 -66 46 -35 84 -67 84 -72 0 -5 -19 -14 -42
-20 -24 -6 -54 -15 -68 -21 -20 -7 -18 -8 15 -4 135 18 170 17 275 -9 167 -43
200 -63 268 -162 76 -113 92 -144 92 -176 0 -26 -3 -28 -44 -28 -56 0 -189 39
-305 89 -235 101 -349 194 -421 346 -23 50 -47 101 -52 115 -6 14 -12 20 -15
14 -2 -6 12 -56 32 -110 19 -54 35 -102 35 -106 0 -14 -25 -8 -86 21 -78 37
-123 78 -229 206 -108 131 -189 204 -278 251 -120 62 -167 107 -167 162 0 11
-7 25 -15 32 -24 20 -31 -35 -12 -88 l17 -44 -118 6 c-135 6 -115 -7 35 -24
51 -5 114 -17 140 -26 110 -36 225 -123 318 -238 63 -78 129 -188 123 -206 -4
-12 -267 87 -385 145 -81 40 -102 57 -189 147 -88 94 -96 100 -91 71 7 -38 7
-38 -78 -18 -70 17 -84 12 -29 -10 154 -62 236 -106 222 -120 -12 -12 -148
-35 -205 -35 -35 0 -63 -4 -63 -10 0 -13 46 -13 184 1 l111 11 147 -70 c141
-69 167 -85 150 -96 -4 -2 -84 -12 -177 -21 -188 -19 -262 -40 -105 -30 331
20 459 16 604 -20 105 -26 203 -76 191 -96 -4 -5 -36 -9 -73 -10 -37 -1 -78
-5 -92 -9 -23 -7 -22 -8 10 -10 166 -7 224 -25 359 -113 l65 -42 -40 -7 c-116
-21 -318 3 -417 50 -36 16 -104 57 -153 89 -49 33 -100 66 -114 73 l-25 12 21
-22 c12 -12 59 -52 104 -88 103 -83 110 -96 44 -87 -94 13 -247 56 -344 96
-111 46 -144 48 -79 4 24 -15 39 -30 33 -32 -5 -2 -95 22 -200 53 -283 84
-320 91 -189 34 41 -18 75 -36 75 -40 0 -3 -30 -16 -67 -28 l-68 -21 60 7
c129 15 243 6 378 -29 71 -19 129 -38 130 -44 1 -5 -54 -18 -123 -27 -262 -36
-297 -42 -260 -46 19 -2 80 1 135 7 127 15 202 17 211 8 4 -4 -3 -21 -15 -38
-13 -17 -20 -33 -17 -37 14 -13 62 16 91 55 16 23 40 45 51 48 24 7 344 -22
376 -34 16 -6 -6 -16 -93 -44 -63 -19 -158 -47 -213 -62 -116 -30 -166 -50
-166 -64 0 -14 -1 -14 51 5 24 8 101 29 171 45 70 16 154 40 187 54 82 34 248
49 481 43 174 -5 191 -7 285 -38 55 -18 126 -43 157 -56 55 -23 68 -24 274
-24 211 0 219 1 268 25 131 63 366 81 816 61 292 -14 344 -19 515 -50 206 -39
224 -41 210 -27 -6 5 -57 19 -115 31 -161 32 -169 36 -100 64 52 21 78 20 290
-4 96 -11 184 -20 195 -19 50 1 -30 18 -161 34 -77 9 -141 19 -143 21 -10 9
18 24 114 62 171 68 429 212 395 219 -9 2 -85 -29 -170 -68 -169 -78 -230
-102 -230 -91 0 3 33 40 73 80 84 87 66 81 -58 -17 -129 -102 -158 -115 -337
-150 -216 -42 -216 -42 -143 23 33 30 57 57 53 61 -3 4 -35 -13 -70 -36 -93
-64 -113 -68 -288 -67 -245 1 -243 -5 -49 115 92 57 186 110 210 119 60 21
453 112 559 129 85 13 85 13 28 14 -31 1 -60 5 -63 11 -3 5 65 45 153 88 87
44 176 90 198 104 21 14 61 38 89 53 27 16 44 30 37 33 -12 4 -15 3 -162 -76
-139 -75 -164 -70 -100 24 21 32 37 61 34 63 -3 3 -24 -14 -46 -39 -130 -145
-143 -157 -228 -199 -87 -43 -302 -106 -308 -91 -2 5 15 41 38 81 22 39 55
105 72 146 28 69 38 81 132 163 55 48 112 97 126 108 14 11 23 23 20 26 -3 3
-56 -33 -118 -79 -94 -72 -142 -99 -142 -81 0 14 38 103 100 236 101 217 104
223 88 218 -7 -3 -42 -62 -78 -133 -36 -71 -70 -131 -76 -132 -16 -5 -24 30
-24 104 0 34 -4 65 -10 68 -12 8 -13 0 -15 -195 -2 -180 -12 -228 -80 -367
-31 -63 -58 -103 -89 -130 -45 -39 -549 -303 -579 -303 -21 0 -21 11 -3 55 20
48 48 62 155 79 52 9 96 18 99 21 3 3 -33 2 -81 -1 -62 -5 -87 -4 -87 4 0 6
35 36 79 67 104 73 121 96 37 49 l-69 -37 7 59 c7 54 6 57 -8 38 -8 -11 -18
-34 -22 -50 -10 -44 -33 -85 -71 -127 -18 -21 -54 -69 -78 -107 -60 -94 -74
-101 -208 -112 -102 -8 -278 -44 -399 -82 -27 -8 -48 -13 -48 -11 0 3 51 55
113 117 62 62 152 165 199 228 95 127 183 217 243 248 38 19 275 104 323 115
12 3 48 -1 80 -9 67 -16 82 -17 82 -6 0 14 -49 32 -88 32 -20 0 -44 4 -52 10
-18 11 -18 11 95 41 96 25 124 45 50 34 -27 -3 -146 -39 -262 -78 -117 -39
-216 -67 -220 -64 -9 10 75 95 172 173 130 106 271 197 413 268 72 36 132 68
132 71 0 2 -21 -3 -47 -11 -78 -23 -93 -27 -93 -19 0 4 21 43 48 87 43 73 63
96 157 172 49 40 25 37 -45 -5 -36 -21 -69 -39 -73 -39 -5 0 -7 21 -6 48 3 35
0 47 -11 47 -17 0 -28 -35 -29 -98 -1 -60 -23 -112 -64 -156 -53 -55 -265
-201 -293 -201 -22 0 45 204 93 283 40 66 40 88 0 57 -38 -30 -36 -20 22 173
58 193 66 230 48 225 -6 -3 -30 -57 -53 -121 -56 -159 -60 -162 -75 -46 -10
78 -14 88 -30 72 -7 -7 -7 -35 2 -93 17 -122 7 -303 -25 -419 -41 -148 -84
-218 -182 -301 -93 -80 -185 -175 -234 -244 -18 -25 -38 -46 -43 -46 -21 0 -1
163 32 258 18 52 31 96 28 98 -2 2 -19 -22 -38 -53 -38 -65 -59 -73 -72 -26
-12 42 -42 56 -33 16 44 -206 44 -306 2 -399 -34 -74 -260 -304 -299 -304 -26
0 -30 5 -42 67 -7 36 10 245 27 312 18 77 74 183 125 236 26 28 121 112 211
188 175 149 244 225 266 297 54 170 146 538 146 586 0 19 -15 18 -35 -2 -11
-11 -25 -14 -45 -10 -34 6 -37 -2 -14 -46 13 -26 15 -52 11 -132 -6 -114 -56
-297 -109 -398 -33 -61 -140 -172 -161 -166 -6 3 -13 17 -15 32 -3 21 7 37 42
73 40 40 42 44 20 39 -49 -13 -54 3 -54 171 0 98 -4 162 -12 176 -11 21 -11
21 -19 2 -4 -11 -8 -72 -9 -135 -1 -63 -5 -126 -9 -138 -3 -13 -35 -57 -71
-98 -63 -73 -66 -75 -157 -104 -51 -17 -99 -30 -107 -30 -9 0 -15 20 -20 63
-3 34 -9 86 -13 116 l-6 54 114 108 c63 59 110 111 106 115 -9 10 -9 10 -121
-81 -48 -38 -91 -71 -95 -73 -14 -5 -21 26 -28 118 l-6 88 29 15 c16 8 105 36
198 61 93 26 178 53 189 61 32 22 0 19 -54 -4 -52 -23 -119 -37 -119 -25 0 5
23 32 52 61 39 40 48 53 34 53 -10 0 -47 -28 -81 -63 -49 -50 -74 -67 -116
-79 -98 -30 -126 -31 -149 -8 -27 27 -25 52 7 90 31 37 62 58 198 130 95 50
141 80 120 80 -6 0 -19 -7 -29 -15 -37 -28 -49 -20 -41 31 8 56 -8 52 -32 -7
-19 -49 -79 -102 -134 -118 -22 -7 -43 -10 -46 -7 -3 2 13 38 36 79 23 41 41
78 41 81 0 4 -16 -5 -35 -20 -20 -15 -37 -25 -39 -23 -2 2 -13 23 -25 47 -24
46 -36 56 -21 16z m-30 -611 c32 -143 35 -183 14 -190 -16 -5 -154 118 -160
143 -3 11 8 54 25 95 16 42 33 93 37 115 3 21 9 43 12 49 11 18 40 -69 72
-212z m6 -295 c36 -71 48 -170 40 -347 -4 -88 -11 -160 -17 -168 -29 -34 -229
120 -269 208 -27 59 -25 85 11 200 18 55 29 102 26 105 -12 12 -26 -8 -43 -59
-19 -58 -43 -92 -56 -79 -10 10 21 97 74 212 19 41 38 85 42 98 7 21 12 18 88
-50 47 -44 89 -92 104 -120z m434 17 c0 -37 -36 -108 -81 -159 -36 -41 -209
-186 -222 -186 -11 0 -27 75 -27 128 0 97 21 116 230 208 91 40 100 41 100 9z
m-747 -252 c9 -54 65 -131 144 -199 37 -33 94 -84 126 -115 56 -54 57 -57 57
-110 0 -138 -39 -392 -65 -417 -8 -9 -50 41 -123 148 -149 218 -192 342 -192
565 0 103 3 135 16 153 20 29 30 22 37 -25z"/>
<path d="M761 2951 c-9 -6 -10 -11 -2 -15 6 -4 11 -16 11 -27 0 -21 0 -21 -34
0 -40 25 -75 26 -145 5 -145 -43 -218 -229 -126 -321 l32 -32 -42 -45 c-58
-60 -88 -141 -83 -222 5 -77 35 -126 96 -156 37 -17 56 -20 120 -15 123 9 211
58 251 140 42 87 17 215 -51 257 -27 17 -44 20 -90 17 -100 -8 -158 -63 -158
-149 0 -56 30 -88 81 -88 41 0 79 24 79 49 0 14 -6 17 -29 13 -23 -3 -33 2
-46 22 -15 22 -16 31 -5 57 12 29 54 59 83 59 26 0 59 -48 64 -94 8 -64 -13
-129 -56 -178 -34 -37 -42 -41 -94 -46 -42 -3 -63 0 -82 12 -92 61 -73 249 36
354 23 23 41 43 38 44 -2 2 -17 10 -34 18 -41 21 -67 75 -60 123 13 90 74 157
142 157 64 0 80 -48 38 -115 -37 -60 -32 -115 10 -115 26 0 41 15 25 25 -25
16 -9 62 45 125 41 49 55 73 55 97 0 42 -36 65 -69 44z"/>
<path d="M3400 2926 c0 -4 18 -24 40 -46 21 -21 48 -57 59 -79 11 -21 50 -157
87 -302 49 -199 64 -274 60 -305 -5 -39 -3 -43 23 -54 15 -6 45 -29 67 -51 27
-28 46 -39 68 -39 l29 0 -22 24 c-47 50 -41 94 68 444 66 213 82 248 129 277
64 41 27 48 -48 10 -27 -14 -63 -25 -80 -25 -29 0 -40 -13 -20 -25 6 -3 10
-23 10 -44 0 -39 -59 -250 -105 -375 -14 -38 -25 -71 -25 -74 0 -4 -4 -2 -9 4
-12 12 -121 447 -121 482 0 15 7 37 15 49 14 20 13 22 -22 33 -21 7 -75 32
-120 57 -46 24 -83 42 -83 39z"/>
<path d="M1842 2853 c-51 -9 -53 -84 -3 -101 37 -13 62 8 41 33 -7 9 -10 18
-6 22 13 13 61 -13 83 -46 23 -33 23 -38 23 -333 0 -326 3 -343 58 -372 l27
-14 -30 -12 c-96 -37 -156 -42 -406 -37 -233 5 -249 7 -320 32 -41 14 -112 35
-159 47 -119 28 -252 64 -272 73 -10 4 -18 3 -18 -3 0 -15 85 -48 200 -77 58
-14 147 -40 199 -57 114 -38 114 -38 -129 -63 l-173 -18 -26 30 c-14 17 -36
43 -48 57 -13 16 -32 26 -47 26 -31 0 -32 -4 -6 -37 11 -14 20 -30 20 -36 0
-10 -79 -7 -300 9 -47 4 -83 4 -80 1 3 -3 91 -18 195 -32 105 -14 199 -28 209
-32 18 -5 18 -6 2 -15 -9 -5 -72 -23 -139 -40 -98 -25 -144 -31 -232 -32 -60
0 -128 3 -150 6 -26 5 -16 -1 29 -15 77 -25 77 -30 -14 -67 -56 -24 -82 -40
-64 -40 10 0 98 25 318 89 76 23 141 39 143 37 3 -3 -14 -17 -37 -32 -64 -43
-31 -40 83 5 163 65 388 114 387 84 0 -5 -41 -39 -90 -77 -158 -122 -162 -141
-7 -37 133 89 195 119 276 136 89 19 267 29 316 18 l40 -9 -58 -38 c-107 -69
-196 -106 -257 -107 -30 0 -75 -4 -100 -8 l-45 -7 55 -7 c30 -4 72 -8 93 -10
20 -1 38 -6 40 -12 5 -22 -130 -75 -257 -101 -121 -25 -141 -26 -300 -20 -94
3 -207 8 -251 11 -61 4 -74 3 -55 -5 13 -6 83 -16 155 -21 152 -13 197 -20
202 -35 2 -6 -45 -32 -104 -59 -60 -26 -127 -59 -151 -73 -39 -22 -50 -24
-110 -18 -144 14 -237 17 -222 8 8 -5 51 -12 95 -15 79 -5 165 -24 165 -37 0
-15 -62 -49 -153 -84 -134 -52 -141 -67 -17 -35 56 14 60 13 53 -23 -6 -30 3
-24 98 73 90 91 116 111 189 146 141 67 365 152 375 141 19 -18 -92 -185 -184
-277 -115 -115 -231 -171 -392 -191 -154 -18 -172 -31 -35 -24 111 5 118 4
111 -13 -22 -55 -26 -76 -21 -98 8 -31 36 -22 36 12 0 60 43 103 167 168 89
46 178 126 277 249 41 51 97 113 125 138 48 44 175 108 187 95 4 -3 -10 -54
-31 -112 -21 -58 -36 -108 -33 -110 2 -3 28 46 57 107 60 127 113 187 230 263
154 100 438 205 521 194 22 -4 25 -9 24 -42 -1 -23 -10 -50 -23 -65 -12 -15
-44 -62 -72 -104 -61 -93 -97 -114 -264 -154 -110 -26 -127 -27 -270 -10 -31
4 -25 1 28 -16 37 -12 67 -25 67 -29 0 -4 -31 -30 -69 -58 -64 -48 -100 -81
-88 -81 3 0 63 29 133 64 186 93 374 151 374 115 0 -35 -68 -110 -172 -190
-42 -33 -103 -82 -135 -110 -96 -85 -136 -94 -281 -59 -109 26 -142 25 -82 -2
43 -20 44 -21 20 -28 -14 -5 -37 -8 -52 -9 -16 -1 -28 -6 -28 -13 0 -8 39 -9
150 -4 83 3 150 3 150 -2 0 -36 -206 -180 -322 -224 -54 -20 -142 -24 -198 -7
-43 13 -139 5 -164 -14 -13 -10 6 -12 91 -12 84 0 117 -5 148 -19 l40 -19 -35
-9 c-143 -39 -323 -122 -466 -214 -69 -43 -59 -57 15 -20 28 14 52 26 55 26 3
0 -2 -20 -11 -46 -8 -25 -13 -47 -10 -50 3 -3 23 21 46 54 80 119 185 186 316
204 136 18 134 2 -16 -129 -56 -48 -96 -89 -90 -91 6 -2 44 17 83 42 62 38 73
43 76 28 5 -33 -46 -129 -84 -159 -63 -48 -115 -96 -110 -101 3 -2 30 10 60
27 31 17 57 31 60 31 2 0 0 -19 -4 -42 -5 -24 -6 -45 -4 -47 11 -11 43 36 49
72 4 23 25 85 47 137 22 52 49 119 59 149 30 85 77 142 168 202 48 31 88 37
97 15 6 -16 -34 -99 -82 -169 -46 -67 -43 -77 11 -32 38 30 46 34 51 20 13
-32 -3 -152 -25 -198 -29 -60 -95 -133 -140 -157 -38 -19 -102 -80 -84 -80 6
0 27 7 48 16 20 8 39 14 41 12 2 -2 -14 -33 -36 -68 -76 -126 -38 -99 57 39
176 256 196 264 128 52 -19 -59 -38 -129 -42 -156 -6 -44 -5 -48 12 -41 11 4
22 2 26 -5 13 -22 27 56 69 391 46 367 58 424 99 483 62 91 329 332 347 314 7
-7 -15 -488 -27 -591 -16 -148 -23 -157 -185 -240 -89 -45 -134 -80 -121 -92
3 -4 40 12 82 35 41 23 75 37 75 32 0 -5 -4 -13 -10 -16 -5 -3 -15 -15 -20
-26 -23 -41 23 -18 90 47 38 36 73 63 78 60 13 -8 31 -115 39 -228 6 -93 6
-93 -32 -164 -20 -40 -35 -82 -33 -95 2 -19 11 -10 53 54 28 42 55 75 60 74
19 -6 73 -86 91 -134 20 -57 29 -68 43 -59 14 9 -15 82 -63 161 -76 126 -111
309 -95 497 8 96 43 228 59 228 14 0 34 -34 96 -169 l56 -123 -81 -82 c-71
-72 -99 -116 -72 -116 11 0 61 50 61 61 0 5 5 9 10 9 6 0 10 -6 10 -13 0 -7 6
-22 14 -33 13 -18 16 -15 42 44 14 34 30 62 34 62 20 0 69 -161 70 -229 0 -14
-16 -55 -35 -92 -34 -66 -44 -109 -26 -109 5 0 14 14 21 30 20 48 50 81 69 75
11 -3 22 6 36 32 27 50 41 51 63 6 50 -99 64 -203 38 -278 -4 -11 5 3 20 30
14 28 28 52 30 54 2 2 19 -8 39 -23 19 -15 35 -23 35 -19 0 5 -18 39 -40 77
-55 94 -54 97 21 71 55 -20 83 -46 121 -112 16 -29 32 -53 34 -53 2 0 1 20 -3
45 -6 50 -5 52 38 29 17 -8 33 -13 36 -11 2 3 -26 22 -64 43 -187 102 -253
146 -268 174 -20 38 -19 56 4 79 16 16 26 17 77 10 88 -12 128 -33 193 -99 52
-54 81 -73 81 -52 0 4 -20 27 -45 51 -25 24 -45 47 -45 52 0 16 44 9 105 -16
68 -28 101 -33 70 -11 -11 7 -72 28 -135 46 -291 81 -280 75 -279 148 0 55 13
139 22 148 7 8 57 -28 144 -103 57 -49 83 -63 83 -45 0 4 -50 55 -111 113
l-112 107 7 53 c3 30 9 82 12 117 5 48 10 62 23 62 9 0 57 -14 107 -30 85 -29
95 -35 146 -93 30 -34 61 -73 68 -87 8 -15 15 -72 17 -145 2 -66 6 -131 9
-145 5 -24 6 -24 20 -6 11 15 14 57 14 177 0 170 4 183 54 172 19 -4 19 -3 -4
19 -54 50 -77 107 -49 123 13 9 65 -28 111 -80 49 -55 79 -119 123 -260 30
-96 38 -141 42 -227 5 -87 3 -110 -11 -129 -25 -36 -21 -49 14 -43 20 4 34 1
45 -10 18 -17 35 -21 35 -7 0 4 -11 64 -25 132 -36 176 -113 446 -144 503 -30
57 -133 160 -311 311 -188 159 -243 241 -276 414 -16 84 -23 275 -11 309 6 15
16 22 35 22 39 0 265 -232 299 -306 40 -89 39 -231 -4 -403 -9 -35 16 -17 33
25 8 19 18 34 23 34 5 0 26 -27 46 -61 21 -33 39 -58 42 -55 3 3 -9 45 -27 93
-34 94 -55 263 -32 263 6 0 15 -6 19 -14 24 -42 158 -186 244 -261 84 -74 104
-98 134 -159 80 -161 113 -386 86 -576 -9 -57 -9 -86 -2 -93 14 -14 31 32 31
86 0 43 14 77 26 64 4 -4 25 -59 48 -124 46 -131 74 -165 50 -61 -13 56 -45
169 -88 310 -16 53 -11 58 25 27 36 -31 35 -5 -1 51 -31 49 -83 186 -96 256
-5 26 -3 34 8 34 19 0 221 -141 271 -188 54 -51 67 -81 77 -174 5 -45 14 -86
19 -91 18 -18 29 3 23 48 -5 48 1 53 33 32 11 -8 41 -26 68 -41 60 -35 54 -12
-8 33 -24 17 -60 51 -78 74 -34 42 -97 146 -97 161 0 9 15 6 93 -18 26 -8 47
-13 47 -11 0 3 -55 32 -122 66 -127 64 -280 159 -383 238 -72 55 -215 190
-215 203 0 12 28 4 262 -73 114 -38 222 -69 240 -69 47 0 24 16 -52 35 -94 23
-124 36 -108 46 7 5 30 9 50 9 39 0 88 18 88 32 0 11 -23 10 -57 -3 -50 -19
-116 -12 -233 26 -222 72 -287 121 -450 340 -61 83 -134 165 -200 227 -57 54
-102 99 -99 101 2 3 65 -13 139 -35 102 -30 169 -43 278 -53 97 -9 151 -18
168 -29 13 -10 44 -47 68 -84 23 -37 61 -88 83 -113 38 -45 56 -78 67 -129 3
-14 12 -34 21 -45 15 -19 15 -16 9 38 -3 31 -3 57 0 57 4 0 23 -11 44 -23 20
-13 48 -30 62 -37 47 -25 2 17 -82 76 -43 31 -78 60 -78 66 0 7 29 8 88 5 98
-7 76 5 -46 24 -49 7 -81 18 -97 33 -27 24 -58 93 -45 101 9 6 389 -181 511
-251 93 -54 127 -91 179 -199 61 -126 74 -188 76 -360 1 -193 2 -201 13 -189
5 5 11 44 13 86 6 126 20 120 99 -47 31 -68 63 -126 70 -130 21 -14 2 38 -80
213 -66 142 -101 224 -101 238 0 15 37 -3 91 -44 208 -155 227 -157 49 -3
-114 97 -146 136 -165 201 -4 14 -30 65 -57 113 -28 49 -47 91 -43 95 12 13
220 -48 304 -89 82 -41 106 -61 229 -199 22 -25 43 -42 46 -39 3 2 -13 31 -34
63 -66 97 -44 99 125 11 121 -63 153 -75 140 -55 -6 10 -92 58 -317 174 -86
44 -157 86 -158 91 0 6 26 12 57 15 l58 5 -85 13 c-178 27 -534 114 -595 144
-47 24 -301 176 -325 195 -27 22 289 33 374 13 22 -5 65 -26 95 -48 105 -72
124 -63 34 17 -52 46 -55 51 -33 51 51 0 329 -59 367 -78 21 -11 88 -57 147
-102 60 -45 110 -80 112 -78 2 2 -26 33 -61 68 -36 36 -65 68 -65 72 0 11 64
-14 226 -91 149 -70 206 -88 174 -57 -38 38 -265 155 -437 228 -40 16 -73 34
-73 39 0 5 2 9 5 9 36 0 283 34 299 41 25 11 -64 5 -232 -17 -135 -17 -205
-17 -251 0 -72 26 -50 40 119 71 47 9 89 21 94 26 16 15 -20 11 -199 -25 -143
-29 -209 -36 -415 -47 -576 -29 -885 1 -987 97 l-36 34 -153 0 -154 0 0 296
c0 198 4 302 11 316 11 20 9 21 -21 14 -18 -3 -35 -6 -39 -6 -3 0 -5 -139 -3
-310 2 -207 -1 -316 -8 -330 -15 -28 -82 -60 -125 -60 -70 0 -102 77 -49 119
25 20 54 19 54 -2 0 -8 3 -8 11 0 6 6 9 21 7 34 -2 18 -10 25 -32 27 -16 2
-33 -1 -39 -7 -6 -6 -15 -11 -19 -11 -12 0 -10 478 2 501 9 15 7 19 -6 19 -10
0 -47 20 -83 44 -65 43 -104 56 -149 49z m582 -921 c17 -78 36 -249 36 -332 0
-68 3 -65 -141 -188 -139 -119 -189 -186 -189 -252 0 -36 -13 -39 -34 -8 -25
35 -22 261 4 364 33 130 109 272 233 436 60 80 69 78 91 -20z m59 -597 c10
-148 3 -282 -18 -355 -14 -48 -28 -66 -107 -142 l-91 -87 -44 97 c-65 143 -83
190 -83 219 0 25 1 26 20 8 10 -9 26 -41 35 -71 14 -50 30 -73 42 -61 3 3 -9
51 -26 105 -17 55 -31 113 -31 129 1 73 76 168 192 244 96 62 101 58 111 -86z
m181 -129 c141 -111 199 -185 213 -271 6 -38 6 -38 -23 -31 -16 4 -84 34 -152
67 -138 67 -152 83 -152 176 0 48 16 123 27 123 3 0 42 -29 87 -64z m-202
-421 c-3 -58 -48 -265 -69 -317 -18 -46 -28 -42 -37 13 -4 23 -21 78 -38 121
-29 72 -30 82 -17 103 21 35 139 137 152 132 8 -3 11 -23 9 -52z"/>
<path d="M919 2692 c14 -26 15 -346 1 -371 -8 -16 -5 -20 22 -25 17 -3 47 -6
66 -6 28 0 33 3 24 12 -17 17 -16 161 1 156 16 -6 34 -42 47 -93 14 -58 42
-85 89 -85 47 0 63 18 59 62 -3 31 -5 33 -39 30 -38 -3 -51 6 -68 51 -9 24 -8
28 24 42 88 42 81 179 -11 225 -17 8 -70 16 -127 18 -97 4 -99 4 -88 -16z
m191 -60 c11 -13 20 -38 20 -54 0 -40 -41 -80 -78 -76 -26 3 -27 5 -30 72 -2
38 -1 74 2 81 7 20 65 5 86 -23z"/>
<path d="M2985 2698 c7 -18 -111 -367 -131 -389 -16 -18 -15 -19 30 -19 44 0
47 2 41 21 -8 25 13 109 28 109 6 0 35 -8 64 -17 58 -18 78 -41 69 -78 -5 -20
-1 -23 41 -29 84 -11 85 -11 63 27 -22 37 -103 355 -96 374 4 10 -9 13 -54 13
-43 0 -58 -3 -55 -12z m56 -168 c11 -39 18 -74 15 -77 -11 -11 -86 18 -86 32
0 20 41 127 46 122 3 -3 14 -37 25 -77z"/>
<path d="M2718 2683 c-10 -2 -40 -42 -68 -89 -28 -46 -54 -84 -58 -84 -11 0
-82 101 -82 116 0 17 -5 17 -70 3 -41 -9 -49 -14 -40 -24 8 -9 10 -75 8 -204
-3 -186 -2 -191 17 -190 39 2 70 14 57 23 -15 9 -17 246 -2 246 19 0 80 -93
80 -121 0 -16 5 -29 10 -29 21 0 50 41 50 72 0 17 12 52 28 77 l27 46 3 -35
c2 -19 2 -79 0 -133 l-3 -98 28 6 c15 3 41 8 58 11 23 4 28 9 20 17 -16 16
-15 369 1 385 9 9 5 12 -17 11 -17 -1 -38 -3 -47 -6z"/>
<path d="M1392 2628 c-1 -35 -111 -320 -133 -344 l-20 -21 38 -7 c60 -9 64 -8
57 18 -3 13 2 40 10 61 l16 37 62 -35 c62 -35 63 -36 64 -78 l1 -43 59 -13
c78 -16 77 -17 58 11 -18 29 -107 384 -100 402 3 8 -12 16 -45 23 -66 14 -66
14 -67 -11z m57 -173 c11 -43 18 -81 16 -83 -2 -2 -22 7 -45 20 -34 19 -40 27
-36 48 6 31 36 103 41 99 2 -2 12 -40 24 -84z"/>
<path d="M4467 2605 c-65 -12 -120 -25 -123 -28 -11 -10 -33 -97 -25 -97 5 0
21 16 35 35 26 34 63 50 131 57 22 2 29 -1 27 -12 -2 -8 -48 -97 -104 -198
-55 -101 -98 -185 -96 -187 5 -4 176 23 232 37 48 13 50 15 62 61 14 55 7 59
-25 16 -13 -17 -38 -37 -57 -45 -34 -14 -104 -19 -104 -8 0 4 45 91 100 194
55 102 100 189 100 193 0 10 -20 7 -153 -18z"/>
<path d="M3967 2368 l2 -203 113 -3 c62 -1 122 0 134 2 19 5 44 43 44 66 0 18
-32 10 -62 -15 -33 -28 -108 -35 -125 -12 -28 35 -24 102 9 136 25 27 68 28
75 1 6 -24 19 -26 27 -4 25 66 -28 105 -96 70 -26 -14 -27 -14 -33 25 -4 21
-4 52 0 69 6 29 9 30 57 30 35 0 58 -6 75 -20 47 -37 80 -13 49 35 -16 24 -19
25 -144 25 l-127 0 2 -202z"/>
</g>
</svg>
